<svg width="1899" height="971" xmlns="http://www.w3.org/2000/svg"><g><path d="M-70,-36L-89,233L-64,87Z" fill="#ffffff" stroke="#ffffff"/><path d="M-70,-36L-64,87L20,70Z" fill="#fffeff" stroke="#fffeff"/><path d="M-70,-36L20,70L101,-89Z" fill="#fdfdfe" stroke="#fdfdfe"/><path d="M101,-89L20,70L182,-37Z" fill="#fbfafd" stroke="#fbfafd"/><path d="M101,-89L182,-37L363,-104Z" fill="#f8f7fb" stroke="#f8f7fb"/><path d="M101,-89L363,-104L512,-120Z" fill="#f3f3f8" stroke="#f3f3f8"/><path d="M182,-37L20,70L273,92Z" fill="#f9f9fc" stroke="#f9f9fc"/><path d="M182,-37L273,92L392,15Z" fill="#f5f4f9" stroke="#f5f4f9"/><path d="M182,-37L392,15L363,-104Z" fill="#f4f3f9" stroke="#f4f3f9"/><path d="M363,-104L392,15L512,-120Z" fill="#efeff6" stroke="#efeff6"/><path d="M512,-120L392,15L507,68Z" fill="#ededf5" stroke="#ededf5"/><path d="M512,-120L507,68L622,-57Z" fill="#e8e8f3" stroke="#e8e8f3"/><path d="M512,-120L622,-57L780,-71Z" fill="#e2e3f0" stroke="#e2e3f0"/><path d="M512,-120L780,-71L1276,-88Z" fill="#d5d4e8" stroke="#d5d4e8"/><path d="M512,-120L1276,-88L1411,-116Z" fill="#c7c6e0" stroke="#c7c6e0"/><path d="M622,-57L507,68L718,18Z" fill="#e4e4f1" stroke="#e4e4f1"/><path d="M622,-57L718,18L780,-71Z" fill="#dedfee" stroke="#dedfee"/><path d="M780,-71L718,18L811,83Z" fill="#dadaeb" stroke="#dadaeb"/><path d="M780,-71L811,83L968,-57Z" fill="#d5d4e8" stroke="#d5d4e8"/><path d="M780,-71L968,-57L1276,-88Z" fill="#cbc9e2" stroke="#cbc9e2"/><path d="M968,-57L811,83L998,82Z" fill="#d0cfe5" stroke="#d0cfe5"/><path d="M968,-57L998,82L1069,81Z" fill="#cbc9e2" stroke="#cbc9e2"/><path d="M968,-57L1069,81L1167,-37Z" fill="#c7c6e0" stroke="#c7c6e0"/><path d="M968,-57L1167,-37L1276,-88Z" fill="#c3c1de" stroke="#c3c1de"/><path d="M1167,-37L1069,81L1299,111Z" fill="#c0bfdd" stroke="#c0bfdd"/><path d="M1167,-37L1299,111L1276,-88Z" fill="#bdb9da" stroke="#bdb9da"/><path d="M1276,-88L1299,111L1440,30Z" fill="#b9b0d5" stroke="#b9b0d5"/><path d="M1276,-88L1440,30L1411,-116Z" fill="#b7add4" stroke="#b7add4"/><path d="M1411,-116L1440,30L1523,-98Z" fill="#b2a4cf" stroke="#b2a4cf"/><path d="M1411,-116L1523,-98L1667,-112Z" fill="#ad9acb" stroke="#ad9acb"/><path d="M1523,-98L1440,30L1536,95Z" fill="#b09fcd" stroke="#b09fcd"/><path d="M1523,-98L1536,95L1667,-112Z" fill="#ab95c8" stroke="#ab95c8"/><path d="M1667,-112L1536,95L1747,57Z" fill="#a68bc3" stroke="#a68bc3"/><path d="M1667,-112L1747,57L1838,-59Z" fill="#9f80bd" stroke="#9f80bd"/><path d="M1667,-112L1838,-59L2002,-69Z" fill="#9980b8" stroke="#9980b8"/><path d="M1838,-59L1747,57L1899,33Z" fill="#9a80b9" stroke="#9a80b9"/><path d="M1838,-59L1899,33L2002,-69Z" fill="#9480b3" stroke="#9480b3"/><path d="M2002,-69L1899,33L2024,60Z" fill="#9080b0" stroke="#9080b0"/><path d="M-64,87L-89,233L37,199Z" fill="#fffeff" stroke="#fffeff"/><path d="M-64,87L37,199L20,70Z" fill="#fefdfe" stroke="#fefdfe"/><path d="M20,70L37,199L273,92Z" fill="#fbfafc" stroke="#fbfafc"/><path d="M273,92L37,199L274,265Z" fill="#f8f8fb" stroke="#f8f8fb"/><path d="M273,92L274,265L392,274Z" fill="#f4f3f9" stroke="#f4f3f9"/><path d="M273,92L392,274L392,15Z" fill="#f2f2f8" stroke="#f2f2f8"/><path d="M392,15L392,274L507,68Z" fill="#efeff6" stroke="#efeff6"/><path d="M507,68L392,274L540,255Z" fill="#ececf5" stroke="#ececf5"/><path d="M507,68L540,255L668,222Z" fill="#e7e7f2" stroke="#e7e7f2"/><path d="M507,68L668,222L718,18Z" fill="#e3e3f0" stroke="#e3e3f0"/><path d="M718,18L668,222L811,83Z" fill="#dcdded" stroke="#dcdded"/><path d="M811,83L668,222L809,224Z" fill="#dbdbec" stroke="#dbdbec"/><path d="M811,83L809,224L955,207Z" fill="#d5d3e8" stroke="#d5d3e8"/><path d="M811,83L955,207L998,82Z" fill="#d1cfe5" stroke="#d1cfe5"/><path d="M998,82L955,207L1101,185Z" fill="#cac9e2" stroke="#cac9e2"/><path d="M998,82L1101,185L1069,81Z" fill="#c8c6e1" stroke="#c8c6e1"/><path d="M1069,81L1101,185L1299,111Z" fill="#c2c0de" stroke="#c2c0de"/><path d="M1299,111L1101,185L1247,213Z" fill="#bebcdb" stroke="#bebcdb"/><path d="M1299,111L1247,213L1432,204Z" fill="#b9b1d6" stroke="#b9b1d6"/><path d="M1299,111L1432,204L1440,30Z" fill="#b6abd3" stroke="#b6abd3"/><path d="M1440,30L1432,204L1536,95Z" fill="#b2a2ce" stroke="#b2a2ce"/><path d="M1536,95L1432,204L1592,234Z" fill="#ae9ccb" stroke="#ae9ccb"/><path d="M1536,95L1592,234L1691,165Z" fill="#a891c6" stroke="#a891c6"/><path d="M1536,95L1691,165L1747,57Z" fill="#a58ac3" stroke="#a58ac3"/><path d="M1747,57L1691,165L1879,221Z" fill="#9d80bc" stroke="#9d80bc"/><path d="M1747,57L1879,221L1899,33Z" fill="#9980b8" stroke="#9980b8"/><path d="M1899,33L1879,221L1997,189Z" fill="#9380b3" stroke="#9380b3"/><path d="M1899,33L1997,189L2024,60Z" fill="#9080b0" stroke="#9080b0"/><path d="M2024,60L1997,189L2054,389Z" fill="#8c80ad" stroke="#8c80ad"/><path d="M2024,60L2054,389L2079,637Z" fill="#7b71ab" stroke="#7b71ab"/><path d="M-89,233L-99,382L37,199Z" fill="#fcfbff" stroke="#fcfbff"/><path d="M37,199L-99,382L93,416Z" fill="#f2f2fe" stroke="#f2f2fe"/><path d="M37,199L93,416L168,398Z" fill="#efeffd" stroke="#efeffd"/><path d="M37,199L168,398L274,265Z" fill="#f4f3fc" stroke="#f4f3fc"/><path d="M274,265L168,398L352,417Z" fill="#e7e7fa" stroke="#e7e7fa"/><path d="M274,265L352,417L392,274Z" fill="#e9e9f8" stroke="#e9e9f8"/><path d="M392,274L352,417L544,368Z" fill="#e1e1f6" stroke="#e1e1f6"/><path d="M392,274L544,368L540,255Z" fill="#e5e5f5" stroke="#e5e5f5"/><path d="M540,255L544,368L679,350Z" fill="#dbdcf2" stroke="#dbdcf2"/><path d="M540,255L679,350L668,222Z" fill="#dfdff0" stroke="#dfdff0"/><path d="M668,222L679,350L809,224Z" fill="#dadbed" stroke="#dadbed"/><path d="M809,224L679,350L848,397Z" fill="#cfcfeb" stroke="#cfcfeb"/><path d="M809,224L848,397L955,207Z" fill="#d0cfe7" stroke="#d0cfe7"/><path d="M955,207L848,397L993,407Z" fill="#c4c3e4" stroke="#c4c3e4"/><path d="M955,207L993,407L1101,185Z" fill="#c8c6e2" stroke="#c8c6e2"/><path d="M1101,185L993,407L1176,406Z" fill="#bab9e0" stroke="#bab9e0"/><path d="M1101,185L1176,406L1264,317Z" fill="#b9b7dd" stroke="#b9b7dd"/><path d="M1101,185L1264,317L1247,213Z" fill="#bfbddc" stroke="#bfbddc"/><path d="M1247,213L1264,317L1432,204Z" fill="#bab2d7" stroke="#bab2d7"/><path d="M1432,204L1264,317L1402,404Z" fill="#afa6d4" stroke="#afa6d4"/><path d="M1432,204L1402,404L1540,337Z" fill="#a99bcf" stroke="#a99bcf"/><path d="M1432,204L1540,337L1592,234Z" fill="#ac9acb" stroke="#ac9acb"/><path d="M1592,234L1540,337L1699,328Z" fill="#a189c6" stroke="#a189c6"/><path d="M1592,234L1699,328L1691,165Z" fill="#a58ac3" stroke="#a58ac3"/><path d="M1691,165L1699,328L1879,221Z" fill="#9e80bd" stroke="#9e80bd"/><path d="M1879,221L1699,328L1915,353Z" fill="#9279b8" stroke="#9279b8"/><path d="M1879,221L1915,353L1997,189Z" fill="#917eb2" stroke="#917eb2"/><path d="M1997,189L1915,353L2054,389Z" fill="#8677af" stroke="#8677af"/><path d="M-99,382L-127,1107L-98,668Z" fill="#c0b2e2" stroke="#c0b2e2"/><path d="M-99,382L-98,668L-68,566Z" fill="#d6d4f4" stroke="#d6d4f4"/><path d="M-99,382L-68,566L93,416Z" fill="#e1dff9" stroke="#e1dff9"/><path d="M93,416L-68,566L124,584Z" fill="#d5d3f3" stroke="#d5d3f3"/><path d="M93,416L124,584L187,510Z" fill="#d6d3f3" stroke="#d6d3f3"/><path d="M93,416L187,510L168,398Z" fill="#dfddf7" stroke="#dfddf7"/><path d="M168,398L187,510L352,417Z" fill="#dcdaf5" stroke="#dcdaf5"/><path d="M352,417L187,510L394,574Z" fill="#d0cef0" stroke="#d0cef0"/><path d="M352,417L394,574L520,522Z" fill="#cbc9ed" stroke="#cbc9ed"/><path d="M352,417L520,522L544,368Z" fill="#d3d2f1" stroke="#d3d2f1"/><path d="M544,368L520,522L637,557Z" fill="#c6c4ea" stroke="#c6c4ea"/><path d="M544,368L637,557L679,350Z" fill="#cbcaed" stroke="#cbcaed"/><path d="M679,350L637,557L838,533Z" fill="#bdbbe6" stroke="#bdbbe6"/><path d="M679,350L838,533L848,397Z" fill="#c0bfe7" stroke="#c0bfe7"/><path d="M848,397L838,533L980,472Z" fill="#b4b1df" stroke="#b4b1df"/><path d="M848,397L980,472L993,407Z" fill="#b7b4e0" stroke="#b7b4e0"/><path d="M993,407L980,472L1176,470Z" fill="#aca9db" stroke="#aca9db"/><path d="M993,407L1176,470L1176,406Z" fill="#aba9db" stroke="#aba9db"/><path d="M1176,406L1176,470L1402,404Z" fill="#a49fd6" stroke="#a49fd6"/><path d="M1176,406L1402,404L1264,317Z" fill="#aaa5d7" stroke="#aaa5d7"/><path d="M1402,404L1176,470L1279,572Z" fill="#9a92d0" stroke="#9a92d0"/><path d="M1402,404L1279,572L1476,526Z" fill="#9386ca" stroke="#9386ca"/><path d="M1402,404L1476,526L1540,337Z" fill="#9989ca" stroke="#9989ca"/><path d="M1540,337L1476,526L1533,557Z" fill="#8f7bc5" stroke="#8f7bc5"/><path d="M1540,337L1533,557L1677,483Z" fill="#8d75c1" stroke="#8d75c1"/><path d="M1540,337L1677,483L1699,328Z" fill="#947bc3" stroke="#947bc3"/><path d="M1699,328L1677,483L1873,495Z" fill="#8565b9" stroke="#8565b9"/><path d="M1699,328L1873,495L1915,353Z" fill="#866cb7" stroke="#866cb7"/><path d="M1915,353L1873,495L2006,475Z" fill="#7864ad" stroke="#7864ad"/><path d="M1915,353L2006,475L2054,389Z" fill="#796aac" stroke="#796aac"/><path d="M2054,389L2006,475L2079,637Z" fill="#675aa2" stroke="#675aa2"/><path d="M-68,566L-98,668L79,718Z" fill="#c7c0e9" stroke="#c7c0e9"/><path d="M-68,566L79,718L124,584Z" fill="#c8c3eb" stroke="#c8c3eb"/><path d="M124,584L79,718L254,655Z" fill="#c1bae6" stroke="#c1bae6"/><path d="M124,584L254,655L187,510Z" fill="#c9c6ec" stroke="#c9c6ec"/><path d="M187,510L254,655L394,574Z" fill="#c6c4eb" stroke="#c6c4eb"/><path d="M394,574L254,655L425,676Z" fill="#bbb6e4" stroke="#bbb6e4"/><path d="M394,574L425,676L520,522Z" fill="#bdbbe6" stroke="#bdbbe6"/><path d="M520,522L425,676L538,702Z" fill="#b5b1e1" stroke="#b5b1e1"/><path d="M520,522L538,702L637,557Z" fill="#b6b4e3" stroke="#b6b4e3"/><path d="M637,557L538,702L683,663Z" fill="#ada7dc" stroke="#ada7dc"/><path d="M637,557L683,663L794,645Z" fill="#a9a7dc" stroke="#a9a7dc"/><path d="M637,557L794,645L838,533Z" fill="#abaadd" stroke="#abaadd"/><path d="M838,533L794,645L960,731Z" fill="#9e98d3" stroke="#9e98d3"/><path d="M838,533L960,731L980,472Z" fill="#a19dd6" stroke="#a19dd6"/><path d="M980,472L960,731L1091,619Z" fill="#9794d1" stroke="#9794d1"/><path d="M980,472L1091,619L1176,470Z" fill="#a09cd5" stroke="#a09cd5"/><path d="M1176,470L1091,619L1246,634Z" fill="#928fcf" stroke="#928fcf"/><path d="M1176,470L1246,634L1279,572Z" fill="#918ccd" stroke="#918ccd"/><path d="M1279,572L1246,634L1457,693Z" fill="#8377c2" stroke="#8377c2"/><path d="M1279,572L1457,693L1476,526Z" fill="#8477c2" stroke="#8477c2"/><path d="M1476,526L1457,693L1533,557Z" fill="#7f6dbe" stroke="#7f6dbe"/><path d="M1533,557L1457,693L1589,692Z" fill="#765db6" stroke="#765db6"/><path d="M1533,557L1589,692L1677,483Z" fill="#7a61b8" stroke="#7a61b8"/><path d="M1677,483L1589,692L1731,713Z" fill="#6e4fb0" stroke="#6e4fb0"/><path d="M1677,483L1731,713L1835,642Z" fill="#6b49ac" stroke="#6b49ac"/><path d="M1677,483L1835,642L1873,495Z" fill="#7254af" stroke="#7254af"/><path d="M1873,495L1835,642L2006,475Z" fill="#6b55a8" stroke="#6b55a8"/><path d="M2006,475L1835,642L2079,637Z" fill="#604ea1" stroke="#604ea1"/><path d="M-98,668L-127,1107L-63,960Z" fill="#a282c7" stroke="#a282c7"/><path d="M-98,668L-63,960L-40,834Z" fill="#b099d4" stroke="#b099d4"/><path d="M-98,668L-40,834L79,718Z" fill="#bcabdf" stroke="#bcabdf"/><path d="M79,718L-40,834L116,785Z" fill="#b49fd8" stroke="#b49fd8"/><path d="M79,718L116,785L254,655Z" fill="#baabde" stroke="#baabde"/><path d="M254,655L116,785L218,865Z" fill="#b19ed7" stroke="#b19ed7"/><path d="M254,655L218,865L328,782Z" fill="#af9cd6" stroke="#af9cd6"/><path d="M254,655L328,782L425,676Z" fill="#b5a8dd" stroke="#b5a8dd"/><path d="M425,676L328,782L475,848Z" fill="#a996d3" stroke="#a996d3"/><path d="M425,676L475,848L538,702Z" fill="#aa99d5" stroke="#aa99d5"/><path d="M538,702L475,848L664,826Z" fill="#9d88cb" stroke="#9d88cb"/><path d="M538,702L664,826L683,663Z" fill="#a293d1" stroke="#a293d1"/><path d="M683,663L664,826L795,850Z" fill="#9582c8" stroke="#9582c8"/><path d="M683,663L795,850L794,645Z" fill="#9b8dce" stroke="#9b8dce"/><path d="M794,645L795,850L960,731Z" fill="#9381c7" stroke="#9381c7"/><path d="M960,731L795,850L985,881Z" fill="#8269ba" stroke="#8269ba"/><path d="M960,731L985,881L1164,845Z" fill="#7b61b6" stroke="#7b61b6"/><path d="M960,731L1164,845L1091,619Z" fill="#8675c1" stroke="#8675c1"/><path d="M1091,619L1164,845L1246,634Z" fill="#8476c2" stroke="#8476c2"/><path d="M1246,634L1164,845L1333,871Z" fill="#745bb4" stroke="#745bb4"/><path d="M1246,634L1333,871L1412,786Z" fill="#7358b2" stroke="#7358b2"/><path d="M1246,634L1412,786L1457,693Z" fill="#7963b8" stroke="#7963b8"/><path d="M1457,693L1412,786L1602,854Z" fill="#6844a8" stroke="#6844a8"/><path d="M1457,693L1602,854L1589,692Z" fill="#6944a9" stroke="#6944a9"/><path d="M1589,692L1602,854L1731,713Z" fill="#6237a2" stroke="#6237a2"/><path d="M1731,713L1602,854L1777,817Z" fill="#572498" stroke="#572498"/><path d="M1731,713L1777,817L1835,642Z" fill="#5d319d" stroke="#5d319d"/><path d="M1835,642L1777,817L1834,846Z" fill="#532695" stroke="#532695"/><path d="M1835,642L1834,846L2066,828Z" fill="#4c258f" stroke="#4c258f"/><path d="M1835,642L2066,828L2079,637Z" fill="#513693" stroke="#513693"/><path d="M2079,637L2066,828L2071,999Z" fill="#3a197e" stroke="#3a197e"/><path d="M-40,834L-63,960L98,1022Z" fill="#9c7ec2" stroke="#9c7ec2"/><path d="M-40,834L98,1022L181,927Z" fill="#9c7bc2" stroke="#9c7bc2"/><path d="M-40,834L181,927L116,785Z" fill="#a88dcd" stroke="#a88dcd"/><path d="M116,785L181,927L218,865Z" fill="#a488ca" stroke="#a488ca"/><path d="M218,865L181,927L316,1015Z" fill="#9677bf" stroke="#9677bf"/><path d="M218,865L316,1015L328,782Z" fill="#9c7dc4" stroke="#9c7dc4"/><path d="M328,782L316,1015L475,848Z" fill="#997bc3" stroke="#997bc3"/><path d="M475,848L316,1015L506,1003Z" fill="#8b6fb8" stroke="#8b6fb8"/><path d="M475,848L506,1003L656,978Z" fill="#8669b7" stroke="#8669b7"/><path d="M475,848L656,978L664,826Z" fill="#8c6fbd" stroke="#8c6fbd"/><path d="M664,826L656,978L795,850Z" fill="#8568b9" stroke="#8568b9"/><path d="M795,850L656,978L832,930Z" fill="#7c5bb2" stroke="#7c5bb2"/><path d="M795,850L832,930L985,881Z" fill="#7a5bb3" stroke="#7a5bb3"/><path d="M985,881L832,930L942,962Z" fill="#724fab" stroke="#724fab"/><path d="M985,881L942,962L1099,1028Z" fill="#674aa4" stroke="#674aa4"/><path d="M985,881L1099,1028L1164,845Z" fill="#6846a7" stroke="#6846a7"/><path d="M1164,845L1099,1028L1243,1027Z" fill="#5b409d" stroke="#5b409d"/><path d="M1164,845L1243,1027L1333,871Z" fill="#5f3aa1" stroke="#5f3aa1"/><path d="M1333,871L1243,1027L1371,950Z" fill="#573399" stroke="#573399"/><path d="M1333,871L1371,950L1412,786Z" fill="#613aa2" stroke="#613aa2"/><path d="M1412,786L1371,950L1585,921Z" fill="#5a2d9b" stroke="#5a2d9b"/><path d="M1412,786L1585,921L1602,854Z" fill="#592b9b" stroke="#592b9b"/><path d="M1602,854L1585,921L1772,943Z" fill="#490f8c" stroke="#490f8c"/><path d="M1602,854L1772,943L1777,817Z" fill="#4a0f8d" stroke="#4a0f8d"/><path d="M1777,817L1772,943L1834,846Z" fill="#450d89" stroke="#450d89"/><path d="M1834,846L1772,943L1921,926Z" fill="#3d0480" stroke="#3d0480"/><path d="M1834,846L1921,926L2066,828Z" fill="#3c0d80" stroke="#3c0d80"/><path d="M2066,828L1921,926L2071,999Z" fill="#2f0174" stroke="#2f0174"/><path d="M-63,960L-127,1107L100,1092Z" fill="#8b7fb3" stroke="#8b7fb3"/><path d="M-63,960L100,1092L98,1022Z" fill="#8e7cb5" stroke="#8e7cb5"/><path d="M98,1022L100,1092L214,1098Z" fill="#847aad" stroke="#847aad"/><path d="M98,1022L214,1098L181,927Z" fill="#8c79b4" stroke="#8c79b4"/><path d="M181,927L214,1098L316,1015Z" fill="#8a77b4" stroke="#8a77b4"/><path d="M316,1015L214,1098L357,1129Z" fill="#7d74a9" stroke="#7d74a9"/><path d="M316,1015L357,1129L506,1003Z" fill="#7e71ab" stroke="#7e71ab"/><path d="M506,1003L357,1129L553,1163Z" fill="#726da3" stroke="#726da3"/><path d="M506,1003L553,1163L656,978Z" fill="#7467a7" stroke="#7467a7"/><path d="M656,978L553,1163L709,1143Z" fill="#68639e" stroke="#68639e"/><path d="M656,978L709,1143L783,1113Z" fill="#675e9e" stroke="#675e9e"/><path d="M656,978L783,1113L832,930Z" fill="#6f5ba6" stroke="#6f5ba6"/><path d="M832,930L783,1113L942,962Z" fill="#6954a3" stroke="#6954a3"/><path d="M942,962L783,1113L994,1076Z" fill="#5e509a" stroke="#5e509a"/><path d="M942,962L994,1076L1099,1028Z" fill="#5c499a" stroke="#5c499a"/><path d="M1099,1028L994,1076L1182,1141Z" fill="#4e4590" stroke="#4e4590"/><path d="M1099,1028L1182,1141L1243,1027Z" fill="#4b3f90" stroke="#4b3f90"/><path d="M1243,1027L1182,1141L1246,1154Z" fill="#423b87" stroke="#423b87"/><path d="M1243,1027L1246,1154L1446,1105Z" fill="#403385" stroke="#403385"/><path d="M1243,1027L1446,1105L1371,950Z" fill="#492f8c" stroke="#492f8c"/><path d="M1371,950L1446,1105L1585,921Z" fill="#48238b" stroke="#48238b"/><path d="M1585,921L1446,1105L1531,1182Z" fill="#381c7d" stroke="#381c7d"/><path d="M1585,921L1531,1182L1727,1157Z" fill="#2f1075" stroke="#2f1075"/><path d="M1585,921L1727,1157L1772,943Z" fill="#37067b" stroke="#37067b"/><path d="M1772,943L1727,1157L1892,1121Z" fill="#25006b" stroke="#25006b"/><path d="M1772,943L1892,1121L1921,926Z" fill="#2d0073" stroke="#2d0073"/><path d="M1921,926L1892,1121L1992,1090Z" fill="#200067" stroke="#200067"/><path d="M1921,926L1992,1090L2071,999Z" fill="#220069" stroke="#220069"/><path d="M-127,1107L553,1163L357,1129Z" fill="#7776a3" stroke="#7776a3"/><path d="M-127,1107L357,1129L100,1092Z" fill="#7f7ba8" stroke="#7f7ba8"/><path d="M100,1092L357,1129L214,1098Z" fill="#7c77a7" stroke="#7c77a7"/><path d="M553,1163L1531,1182L1246,1154Z" fill="#454383" stroke="#454383"/><path d="M553,1163L1246,1154L709,1143Z" fill="#56568f" stroke="#56568f"/><path d="M709,1143L1246,1154L1182,1141Z" fill="#494788" stroke="#494788"/><path d="M709,1143L1182,1141L783,1113Z" fill="#53528f" stroke="#53528f"/><path d="M783,1113L1182,1141L994,1076Z" fill="#504b8f" stroke="#504b8f"/><path d="M1246,1154L1531,1182L1446,1105Z" fill="#362a79" stroke="#362a79"/></g></svg>